<svg xmlns="http://www.w3.org/2000/svg" width="56" height="56" viewBox="0 0 56 56" fill="none" id="svg858166364_6729">
<path d="M18.9414 31.0428C18.9414 24.9804 9.87273 10.667 16.0529 7.13689C20.2059 4.7652 21.0487 13.4498 22.9873 18.1468C24.7692 22.4639 25.7688 26.8736 25.7688 29.7781" stroke="#F6F5F1" stroke-width="3" stroke-linecap="round"/>
<path d="M26.2734 30.0306C26.2734 28.2569 26.5409 26.0576 26.7792 23.5176C27.3957 16.945 27.7906 13.342 28.8021 7.77855C29.4917 3.98537 35.4219 2.97411 35.2412 7.36907C35.1203 10.3073 34.3794 17.0252 34.1863 20.4216C33.9393 24.7665 33.3536 26.4903 32.595 31.5475M37.1489 39.4156C36.5088 39.6465 35.8241 39.6105 35.1203 39.2827C34.0367 38.7781 33.5388 37.4617 33.5388 36.6619M37.1489 39.4156C37.4472 39.308 37.7359 39.1423 38.0123 38.9212C39.6648 37.5992 40.0083 34.4487 40.7888 32.5951C40.8581 32.4304 40.9258 32.2488 40.9912 32.0529M37.1489 39.4156C37.1489 40.0749 37.0813 40.9449 37.1489 41.5876C37.3709 43.6965 37.7971 44.8211 39.4334 45.4084C39.9462 45.5925 40.451 45.6092 40.8141 45.6092C43.9111 45.6092 44.9261 39.9474 44.9261 37.4756V35.4171C44.9261 34.2799 44.6434 33.3157 44.0926 32.3243C43.8758 31.9341 43.338 31.5727 42.7169 31.511C42.0881 31.4485 41.1401 31.7551 40.9912 32.0529M33.5388 25.973C34.4407 24.1692 36.3704 21.6873 38.158 21.6859C39.0829 21.6852 39.7313 21.8428 40.4338 22.4445C40.8707 22.8188 41.0895 23.1299 41.2657 23.5176C42.1993 25.5715 41.7509 29.7775 40.9912 32.0529" stroke="#F6F5F1" stroke-width="3" stroke-linecap="round"/>
<path d="M39.5032 45.5195C39.5032 46.4993 39.7076 47.7353 39.4329 48.6625C39.3608 48.9058 39.035 50.7449 38.9609 50.6708" stroke="#F6F5F1" stroke-width="3" stroke-linecap="round"/>
<path d="M29.5431 50.2741C29.5431 51.1025 30.2147 51.7741 31.0431 51.7741C31.8716 51.7741 32.5431 51.1025 32.5431 50.2741H29.5431ZM30.9805 49.2721L32.4448 48.9467L32.4448 48.9467L30.9805 49.2721ZM29.1019 44.7146L27.8274 45.5057L27.8274 45.5057L29.1019 44.7146ZM27.8494 42.8081L26.6014 43.6402L26.6014 43.6402L27.8494 42.8081ZM25.9708 40.7555L27.0314 39.6949L27.0314 39.6949L25.9708 40.7555ZM24.2174 39.7536L24.2175 38.2536C23.5218 38.2535 22.9174 38.7318 22.7575 39.4089C22.5976 40.086 22.9243 40.7841 23.5465 41.0952L24.2174 39.7536ZM26.5829 39.7538L26.5828 41.2538H26.5829V39.7538ZM28.9104 39.3468L28.463 37.9151L28.463 37.9151L28.9104 39.3468ZM33.0156 37.1237L32.0785 35.9524L32.0785 35.9524L33.0156 37.1237ZM33.5479 32.7715L34.9186 32.1623L34.9186 32.1623L33.5479 32.7715ZM32.5459 31.7521L33.2744 30.4409L33.2744 30.4409L32.5459 31.7521ZM29.4148 30.6076L29.2027 32.0925L29.2027 32.0925L29.4148 30.6076ZM20.7869 30.5623L20.2963 29.1448L20.2963 29.1449L20.7869 30.5623ZM19.3362 31.1712L19.9538 32.5381L19.3362 31.1712ZM16.0764 32.9002L16.9443 34.1236L16.9443 34.1236L16.0764 32.9002ZM11.9094 37.6653L13.2885 38.2553L13.2885 38.2553L11.9094 37.6653ZM12.1909 46.006L13.5502 45.3716L13.5502 45.3716L12.1909 46.006ZM15.5361 50.0356L14.6152 51.2196L14.6152 51.2196L15.5361 50.0356ZM15.8639 51.9217C16.2344 52.6627 17.1354 52.963 17.8764 52.5925C18.6173 52.2221 18.9177 51.321 18.5472 50.5801L15.8639 51.9217ZM32.5431 50.2741C32.5431 50.0153 32.5632 49.4793 32.4448 48.9467L29.5162 49.5975C29.5453 49.7283 29.5431 49.858 29.5431 50.2741H32.5431ZM30.3763 43.9236C29.9545 43.2439 29.5108 42.596 29.0975 41.9761L26.6014 43.6402C27.0422 44.3015 27.4396 44.8809 27.8274 45.5057L30.3763 43.9236ZM29.0975 41.9761C28.4818 41.0526 27.5689 40.2324 27.0314 39.6949L24.9101 41.8162C25.6323 42.5384 26.2019 43.041 26.6014 43.6402L29.0975 41.9761ZM24.2172 41.2536L26.5828 41.2538L26.5831 38.2538L24.2175 38.2536L24.2172 41.2536ZM26.5829 41.2538C27.6369 41.2538 28.5097 41.0435 29.3578 40.7785L28.463 37.9151C27.7565 38.1358 27.2098 38.2538 26.5829 38.2538V41.2538ZM34.9186 32.1623C34.7271 31.7315 34.4143 31.3708 34.1708 31.1298C33.9141 30.8759 33.5969 30.6201 33.2744 30.4409L31.8175 33.0634C31.8173 33.0633 31.8258 33.0681 31.8427 33.0795C31.8591 33.0906 31.88 33.1056 31.9045 33.1246C31.9543 33.1634 32.0088 33.211 32.0606 33.2622C32.113 33.3141 32.1526 33.3598 32.1779 33.3931C32.207 33.4312 32.1979 33.4275 32.1772 33.3807L34.9186 32.1623ZM20.2963 29.1449C19.7226 29.3434 19.2562 29.5613 18.7186 29.8042L19.9538 32.5381C20.536 32.2751 20.8619 32.1237 21.2776 31.9798L20.2963 29.1449ZM9.71865 43.3643C9.71865 44.1168 9.97562 44.8179 10.1954 45.3229C10.3116 45.5899 10.4371 45.8446 10.5469 46.064C10.6633 46.2965 10.7538 46.4735 10.8316 46.6403L13.5502 45.3716C13.4494 45.1557 13.329 44.9199 13.2296 44.7212C13.1237 44.5096 13.0285 44.3149 12.9462 44.1259C12.7692 43.719 12.7186 43.482 12.7186 43.3643H9.71865ZM32.4448 48.9467C32.0664 47.244 31.2752 45.3718 30.3763 43.9236L27.8274 45.5057C28.5614 46.6882 29.2163 48.2479 29.5162 49.5975L32.4448 48.9467ZM27.0314 39.6949C26.2329 38.8963 25.2436 38.5896 24.8882 38.4119L23.5465 41.0952C23.7594 41.2017 23.9524 41.2858 24.1089 41.3532C24.276 41.4252 24.3823 41.4703 24.4851 41.5202C24.6522 41.6012 24.7695 41.6756 24.9101 41.8162L27.0314 39.6949ZM14.6152 51.2196C14.7999 51.3633 15.0155 51.4945 15.1716 51.5878C15.3614 51.7014 15.497 51.7787 15.6562 51.8771C15.8074 51.9705 15.9061 52.0388 15.9653 52.0869C16.0499 52.1557 15.9544 52.1027 15.8639 51.9217L18.5472 50.5801C18.3479 50.1814 18.0412 49.9081 17.8572 49.7587C17.6479 49.5886 17.4205 49.4407 17.2335 49.3251C17.0544 49.2144 16.8394 49.0897 16.7113 49.0131C16.5494 48.9163 16.4798 48.8693 16.457 48.8516L14.6152 51.2196ZM10.8316 46.6403C11.7049 48.5116 13.1041 50.0443 14.6152 51.2196L16.457 48.8516C15.2174 47.8874 14.1733 46.707 13.5502 45.3716L10.8316 46.6403ZM10.5304 37.0752C9.49639 39.4917 9.71865 41.5448 9.71865 43.3643H12.7186C12.7186 41.224 12.5586 39.9611 13.2885 38.2553L10.5304 37.0752ZM15.2085 31.6768C14.0718 32.4832 13.0576 33.4902 12.2661 34.4365C11.4894 35.3649 10.8508 36.3263 10.5304 37.0752L13.2885 38.2553C13.4476 37.8836 13.8843 37.1776 14.5672 36.3613C15.2352 35.5627 16.0648 34.7476 16.9443 34.1236L15.2085 31.6768ZM18.7186 29.8042C17.4076 30.3965 16.1571 31.0038 15.2085 31.6768L16.9443 34.1236C17.6304 33.6369 18.6383 33.1324 19.9538 32.5381L18.7186 29.8042ZM29.627 29.1226C27.002 28.7476 23.4691 28.0466 20.2963 29.1448L21.2776 31.9798C23.5978 31.1767 26.2496 31.6706 29.2027 32.0925L29.627 29.1226ZM33.2744 30.4409C32.2347 29.8633 30.9581 29.3128 29.627 29.1226L29.2027 32.0925C30.0332 32.2111 30.9477 32.5802 31.8175 33.0634L33.2744 30.4409ZM33.9526 38.295C35.0155 37.4447 35.4281 36.2541 35.494 35.1654C35.5587 34.0947 35.3022 33.0255 34.9186 32.1623L32.1772 33.3807C32.4048 33.893 32.5298 34.4818 32.4994 34.9843C32.4701 35.4687 32.3109 35.7665 32.0785 35.9524L33.9526 38.295ZM29.3578 40.7785C31.2893 40.1749 32.4282 39.5146 33.9526 38.295L32.0785 35.9524C30.8035 36.9724 29.9908 37.4376 28.463 37.9151L29.3578 40.7785Z" fill="#F6F5F1"/>
</svg>