<svg xmlns="http://www.w3.org/2000/svg" viewBox="0 0 500 500" id="svg9874876105"><path d="M 404.971 254.254 C 410.507 250.918 419.704 248.22 424.768 244.449 C 429.217 241.136 436.214 237.291 439.211 232.549 C 440.857 229.942 445.196 227.662 447.667 225.709 C 449.531 224.237 450.832 221.409 452.814 220.25 C 457.04 217.777 462.371 209.963 465.198 205.908 C 472.223 195.835 476.255 183.186 478.018 171.128 C 478.797 165.807 478.926 160.571 479.027 155.744 C 479.137 150.482 473.273 146.562 470.377 142.674 C 464.142 134.302 448.627 127.237 437.948 128.887 C 422.352 131.295 407.087 139.826 394.759 149.007 C 384.233 156.845 372.467 162.725 361.672 169.914 C 356.623 173.276 339.012 178.532 338.091 184.826 C 341.939 158.522 356.442 135.818 360.251 109.788 C 361.608 100.512 364.255 90.917 365.65 81.378 C 367.113 71.381 369.287 64.697 360.947 58.324 C 354.691 53.545 344.755 54.503 337.314 54.245 C 325.697 53.843 311.938 66.639 303.519 72.909 C 294.493 79.631 288.047 92.748 281.59 102.007 C 278.628 106.254 276.197 111.034 273.122 115.057 C 271.09 117.718 266.24 123.878 265.779 127.03 C 267.892 112.584 267.022 100.872 262.687 86.814 C 258.656 73.746 254.297 59.847 248.872 47.24 C 241.887 31.008 235.447 9.518 215.066 6.536 C 205.442 5.128 195.408 10.102 187.871 15.949 C 181.013 21.268 178.088 29.966 176.88 38.226 L 172.568 67.692 C 170.657 80.751 171.905 97.722 170.03 110.535 C 170.152 107.031 162.341 96.151 159.869 93.172 C 155.963 88.466 151.696 82.38 146.82 78.56 C 137.213 71.036 126.75 62.281 113.512 67.474 C 100.914 72.417 98.977 90.489 97.899 102.467 C 97.004 112.412 106.813 129.168 115.703 133.651 C 109.284 132.712 105.552 127.208 99.977 124.162 C 94.064 120.932 87.859 119.305 81.9 116.547 C 77.657 114.585 71.211 113.465 66.573 112.787 C 61.217 112.002 56.644 110.091 51.207 109.296 C 42.709 108.052 32.875 108.2 30.948 118.481 C 29.258 127.497 29.129 136.718 33.941 144.737 C 45.761 164.436 62.8 179.53 79.334 195.42 C 88.267 204.005 99.731 213.466 110.637 219.259 C 115.475 221.829 116.054 222.18 120.432 224.917 C 124.632 227.544 128.953 230.339 132.564 232.857 C 104.678 228.777 79.707 233.253 53.591 243.565 C 46.392 246.407 40.606 254.18 37.072 261.004 C 33.533 267.836 30.528 280.997 35.108 288.127 C 40.297 296.204 44.84 302.316 52.954 307.586 C 59.744 311.995 70.955 314.097 79.117 315.291 C 87.827 316.565 96.931 318.718 105.554 318.022 C 108.762 317.763 113.921 316.76 119.43 316.006 C 98.413 320.657 81.75 340.312 75.007 360.174 C 67.44 382.46 69.272 425.09 97.582 432.286 L 97.788 432.337 C 109.866 435.407 121.204 438.29 132.762 431.827 C 143.592 425.772 152.474 419.243 161.457 410.73 C 170.093 402.547 177.532 391.669 184.398 381.925 C 190.562 373.177 198.092 363.081 202.77 353.889 C 198.202 385.103 189.177 416.703 190.27 448.289 C 190.961 468.264 211.413 490.206 232.376 482.752 C 251.467 475.965 260.106 452.402 265.594 434.528 C 268.967 423.544 275.507 413.327 277.72 402.132 C 278.446 398.463 283.537 379.373 286.146 378.513 C 283.858 394.152 292.69 413.494 300.226 427.101 C 307.5 440.234 316.757 451.643 325.614 463.536 C 337.215 479.113 360.507 490.896 378.852 479.471 C 397.702 467.732 397.157 442.591 395.194 422.978 C 394.168 412.717 389.352 402.814 386.167 393.148 C 384.412 387.824 373.107 370.114 373.107 370.114 C 373.107 370.114 391.825 390.491 400.49 399.527 C 406.454 405.746 416.244 411.22 424.692 412.456 C 439.221 414.582 456.288 410.975 461.292 395.376 C 463.917 387.195 464.905 382.622 462.213 374.456 C 458.997 364.696 454.294 356.059 448.162 347.825 C 442.807 340.635 435.3 336.797 428.802 331.048 L 428.737 330.991 C 424.954 327.642 418.707 322.116 413.785 321.396 C 424.737 322.998 435.471 326.492 446.355 328.084 C 456.085 329.508 460.311 327.312 469.158 323.397 C 482.049 317.693 484.17 289.16 480.173 277.61 C 477.92 271.1 470.232 266.802 466.067 262.025 C 460.533 255.677 452.997 251.979 445.317 250.372 C 430.35 247.237 421.157 248.366 404.971 254.254 Z" fill="#fd1e1f"/><path d="M 404.971 254.254 L 405.398 255.429 C 404.793 255.649 404.121 255.373 403.843 254.793 C 403.566 254.213 403.775 253.516 404.326 253.183 Z M 439.211 232.549 L 440.268 233.217 M 447.667 225.709 L 446.892 224.728 M 452.814 220.25 L 453.446 221.328 M 465.198 205.908 L 466.224 206.623 L 466.224 206.623 Z M 479.027 155.744 L 477.777 155.718 M 470.377 142.674 L 471.38 141.928 M 437.948 128.887 L 438.139 130.122 M 394.759 149.007 L 395.506 150.009 M 361.672 169.914 L 360.979 168.873 M 339.328 185.007 C 339.228 185.69 338.593 186.162 337.909 186.062 C 337.227 185.962 336.753 185.328 336.853 184.645 Z M 360.947 58.324 L 361.706 57.331 M 337.314 54.245 L 337.357 52.996 M 303.519 72.909 L 302.773 71.907 M 273.123 115.058 L 272.129 114.299 M 267.016 127.212 C 266.916 127.894 266.281 128.368 265.598 128.268 C 264.915 128.168 264.443 127.533 264.543 126.849 Z M 262.687 86.814 L 263.881 86.446 M 248.872 47.24 L 250.02 46.746 M 187.871 15.949 L 187.104 14.961 M 170.03 110.535 L 171.267 110.716 C 171.171 111.372 170.578 111.84 169.918 111.78 C 169.257 111.721 168.758 111.155 168.781 110.492 Z M 159.869 93.172 L 160.831 92.373 M 113.512 67.474 L 113.056 66.311 M 97.899 102.467 L 99.144 102.579 M 115.703 133.651 L 116.266 132.534 C 116.813 132.811 117.08 133.442 116.895 134.027 C 116.71 134.612 116.128 134.976 115.522 134.887 Z M 99.977 124.162 L 99.377 125.26 M 81.9 116.547 L 81.375 117.682 L 81.375 117.682 Z M 30.948 118.481 L 29.72 118.251 M 33.941 144.737 L 35.013 144.093 L 35.013 144.093 Z M 79.334 195.42 L 78.468 196.321 M 110.638 219.259 L 111.224 218.156 L 111.224 218.156 Z M 120.432 224.918 L 119.769 225.978 M 132.564 232.858 L 133.279 231.832 C 133.755 232.163 133.94 232.778 133.727 233.318 C 133.513 233.857 132.958 234.178 132.383 234.094 Z M 53.591 243.565 L 54.05 244.728 L 54.05 244.728 Z M 37.072 261.004 L 38.182 261.579 M 35.108 288.128 L 36.16 287.452 M 52.955 307.586 L 52.274 308.634 L 52.274 308.634 Z M 105.554 318.023 L 105.654 319.268 M 135.29 314.197 C 135.973 314.297 136.446 314.932 136.346 315.616 C 136.246 316.298 135.611 316.772 134.928 316.672 Z M 202.77 353.889 L 201.656 353.322 C 201.933 352.777 202.566 352.512 203.149 352.697 C 203.733 352.883 204.096 353.464 204.007 354.07 Z M 190.27 448.289 L 189.021 448.333 M 232.376 482.752 L 231.957 481.575 M 265.594 434.528 L 264.399 434.161 L 264.399 434.161 Z M 277.72 402.132 L 276.494 401.889 L 276.494 401.889 Z M 286.146 378.513 L 285.755 377.327 C 286.167 377.191 286.619 377.278 286.951 377.557 C 287.283 377.835 287.446 378.266 287.383 378.694 Z M 300.226 427.101 L 299.132 427.707 M 325.614 463.536 L 324.611 464.283 M 378.853 479.471 L 378.192 478.41 M 395.194 422.978 L 393.951 423.103 L 393.951 423.103 Z M 386.167 393.148 L 384.98 393.539 M 373.107 370.114 L 372.054 370.787 L 374.028 369.268 Z M 400.49 399.527 L 399.588 400.392 M 461.292 395.376 L 460.102 394.994 L 460.102 394.994 Z M 462.213 374.456 L 461.026 374.848 M 448.162 347.825 L 449.164 347.078 L 449.164 347.078 Z M 428.803 331.048 L 427.974 331.984 M 428.738 330.991 L 427.909 331.927 L 427.909 331.927 Z M 413.604 322.633 C 412.922 322.533 412.448 321.898 412.548 321.215 C 412.648 320.532 413.283 320.059 413.967 320.159 Z M 469.158 323.398 L 468.652 322.254 M 480.173 277.61 L 481.354 277.202 M 466.067 262.025 L 467.009 261.204 L 467.01 261.204 Z M 445.317 250.372 L 445.574 249.148 M 75.007 360.174 L 76.191 360.576 M 97.582 432.286 L 97.891 431.074 L 97.891 431.074 Z M 97.788 432.338 L 98.096 431.126 L 98.096 431.126 Z M 132.763 431.827 L 132.153 430.736 M 161.457 410.73 L 162.317 411.637 M 184.398 381.925 L 185.421 382.645 M 404.326 253.183 C 407.187 251.46 410.977 249.908 414.552 248.367 C 418.197 246.795 421.626 245.23 424.022 243.447 L 425.514 245.452 C 422.847 247.438 419.145 249.109 415.542 250.662 C 411.868 252.247 408.292 253.712 405.616 255.325 Z M 424.022 243.447 C 425.16 242.598 426.457 241.721 427.778 240.824 C 429.11 239.922 430.476 238.995 431.794 238.027 C 434.453 236.075 436.788 234.042 438.154 231.881 L 440.267 233.217 C 438.637 235.797 435.975 238.059 433.274 240.042 C 431.912 241.042 430.507 241.995 429.182 242.893 C 427.847 243.798 426.6 244.643 425.514 245.452 Z M 438.154 231.881 C 439.122 230.35 440.804 229.007 442.404 227.866 C 444.115 226.647 445.674 225.691 446.892 224.728 L 448.442 226.69 C 447.188 227.681 445.343 228.841 443.855 229.902 C 442.257 231.041 440.947 232.141 440.267 233.217 Z M 446.892 224.728 C 447.675 224.11 448.357 223.19 449.21 222.094 C 449.998 221.083 450.954 219.89 452.183 219.171 L 453.446 221.328 C 452.692 221.769 452.007 222.571 451.182 223.63 C 450.423 224.606 449.522 225.837 448.442 226.69 Z M 452.183 219.171 C 454.077 218.063 456.341 215.661 458.555 212.892 C 460.738 210.161 462.752 207.232 464.173 205.193 L 466.224 206.623 C 464.818 208.64 462.753 211.645 460.508 214.453 C 458.293 217.223 455.778 219.963 453.446 221.328 Z M 464.173 205.193 C 471.054 195.325 475.037 182.878 476.782 170.948 L 479.256 171.31 C 477.473 183.493 473.392 196.344 466.224 206.623 Z M 476.782 170.947 C 477.548 165.714 477.676 160.55 477.778 155.718 L 480.277 155.771 C 480.176 160.592 480.047 165.902 479.256 171.31 Z M 477.778 155.718 C 477.823 153.57 476.651 151.58 474.879 149.506 C 474.002 148.479 473.035 147.495 472.064 146.482 C 471.111 145.488 470.151 144.463 469.375 143.421 L 471.38 141.928 C 472.053 142.83 472.912 143.753 473.868 144.752 C 474.808 145.732 475.843 146.785 476.78 147.883 C 478.637 150.055 480.342 152.656 480.277 155.771 Z M 469.375 143.421 C 466.427 139.463 461.196 135.72 455.33 133.168 C 449.462 130.617 443.162 129.347 438.139 130.122 L 437.757 127.652 C 443.413 126.778 450.21 128.216 456.327 130.876 C 462.448 133.538 468.092 137.513 471.38 141.928 Z M 438.139 130.122 C 422.833 132.486 407.762 140.882 395.506 150.009 L 394.013 148.004 C 406.413 138.769 421.873 130.104 437.758 127.652 Z M 395.506 150.009 C 390.188 153.969 384.569 157.426 378.957 160.777 C 373.33 164.137 367.729 167.382 362.365 170.954 L 360.979 168.873 C 366.409 165.257 372.089 161.967 377.676 158.631 C 383.277 155.285 388.804 151.882 394.012 148.004 Z M 362.365 170.954 C 360.999 171.864 358.849 172.865 356.498 173.918 C 354.103 174.991 351.433 176.145 348.883 177.393 C 346.33 178.643 343.974 179.952 342.216 181.304 C 340.407 182.696 339.483 183.943 339.328 185.007 L 336.853 184.645 C 337.158 182.562 338.782 180.792 340.692 179.322 C 342.653 177.815 345.188 176.419 347.784 175.147 C 350.384 173.875 353.121 172.691 355.476 171.637 C 357.876 170.562 359.821 169.645 360.979 168.873 Z M 336.853 184.645 C 338.801 171.339 343.44 158.964 348.016 146.766 C 352.607 134.527 357.133 122.468 359.014 109.607 L 361.488 109.97 C 359.561 123.139 354.931 135.447 350.356 147.644 C 345.766 159.881 341.229 172.009 339.328 185.007 Z M 359.014 109.608 C 359.7 104.923 360.709 100.166 361.713 95.423 C 362.721 90.666 363.722 85.921 364.413 81.198 L 366.887 81.56 C 366.182 86.374 365.163 91.196 364.159 95.941 C 363.152 100.699 362.16 105.378 361.488 109.97 Z M 364.413 81.198 C 365.166 76.057 366.029 72.125 365.729 68.598 C 365.445 65.253 364.096 62.303 360.188 59.318 L 361.706 57.331 C 366.139 60.718 367.872 64.297 368.221 68.386 C 368.552 72.294 367.597 76.704 366.887 81.56 Z M 360.188 59.318 C 357.338 57.141 353.572 56.216 349.459 55.834 C 345.294 55.447 341.138 55.628 337.271 55.494 L 337.357 52.996 C 340.931 53.12 345.463 52.951 349.691 53.345 C 353.969 53.742 358.299 54.729 361.706 57.331 Z M 337.271 55.494 C 331.882 55.308 325.824 58.203 319.907 62.118 C 313.988 66.034 308.588 70.693 304.266 73.912 L 302.773 71.907 C 306.87 68.855 312.558 63.982 318.528 60.033 C 324.499 56.082 331.129 52.78 337.357 52.996 Z M 304.266 73.912 C 299.93 77.141 296.158 81.953 292.628 87.204 C 290.868 89.822 289.187 92.521 287.53 95.164 C 285.878 97.798 284.249 100.379 282.615 102.722 L 280.564 101.292 C 282.158 99.006 283.757 96.475 285.412 93.836 C 287.062 91.205 288.767 88.468 290.553 85.809 C 294.118 80.506 298.083 75.399 302.773 71.907 Z M 282.615 102.722 C 281.162 104.807 279.838 107.022 278.465 109.268 C 277.103 111.497 275.696 113.748 274.116 115.817 L 272.129 114.299 C 273.623 112.344 274.969 110.192 276.332 107.964 C 277.683 105.752 279.057 103.455 280.564 101.292 Z M 274.116 115.817 C 273.089 117.161 271.397 119.33 269.899 121.558 C 269.151 122.67 268.466 123.776 267.945 124.78 C 267.412 125.808 267.1 126.634 267.016 127.212 L 264.543 126.849 C 264.688 125.851 265.157 124.725 265.726 123.628 C 266.308 122.508 267.048 121.316 267.824 120.163 C 269.375 117.857 271.123 115.615 272.129 114.299 Z M 264.543 126.849 C 266.629 112.586 265.772 101.061 261.492 87.182 L 263.881 86.446 C 268.271 100.682 269.157 112.582 267.016 127.212 Z M 261.492 87.182 C 257.459 74.107 253.118 60.271 247.723 47.734 L 250.02 46.746 C 255.476 59.424 259.852 73.384 263.881 86.446 Z M 247.723 47.734 C 244.184 39.51 240.898 30.255 235.943 22.598 C 231.029 15.005 224.598 9.194 214.884 7.773 L 215.247 5.299 C 225.916 6.86 232.894 13.285 238.042 21.24 C 243.148 29.132 246.574 38.739 250.02 46.746 Z M 214.884 7.773 C 205.771 6.439 196.086 11.159 188.637 16.937 L 187.104 14.961 C 194.731 9.046 205.113 3.817 215.247 5.299 Z M 188.637 16.937 C 182.165 21.957 179.309 30.254 178.117 38.407 L 175.643 38.045 C 176.867 29.678 179.862 20.579 187.104 14.961 Z M 178.117 38.407 L 173.805 67.873 L 171.332 67.512 L 175.643 38.045 Z M 173.805 67.873 C 172.863 74.311 172.698 81.736 172.536 89.232 C 172.375 96.687 172.218 104.217 171.267 110.716 L 168.793 110.354 C 169.718 104.039 169.874 96.677 170.036 89.178 C 170.198 81.721 170.363 74.132 171.332 67.511 Z M 168.781 110.492 C 168.788 110.267 168.73 109.874 168.541 109.29 C 168.357 108.724 168.078 108.056 167.716 107.307 C 166.992 105.808 165.978 104.073 164.867 102.328 C 162.645 98.834 160.105 95.413 158.907 93.97 L 160.831 92.373 C 162.105 93.908 164.707 97.417 166.977 100.985 C 168.112 102.77 169.183 104.598 169.967 106.218 C 170.358 107.028 170.688 107.808 170.919 108.52 C 171.143 109.213 171.302 109.928 171.279 110.578 Z M 158.907 93.97 C 157.92 92.78 156.912 91.506 155.889 90.218 C 154.863 88.925 153.82 87.615 152.75 86.336 C 150.603 83.77 148.383 81.373 146.049 79.545 L 147.591 77.576 C 150.132 79.567 152.484 82.123 154.667 84.732 C 155.761 86.039 156.822 87.372 157.847 88.663 C 158.876 89.959 159.865 91.209 160.831 92.373 Z M 146.049 79.545 C 141.202 75.748 136.316 71.791 131.012 69.387 C 125.772 67.012 120.203 66.192 113.968 68.638 L 113.056 66.311 C 120.058 63.563 126.34 64.524 132.043 67.11 C 137.682 69.666 142.831 73.848 147.591 77.576 Z M 113.968 68.638 C 108.176 70.911 104.717 76.24 102.572 82.725 C 100.431 89.202 99.685 96.578 99.144 102.579 L 96.655 102.355 C 97.192 96.378 97.954 88.728 100.199 81.94 C 102.442 75.158 106.251 68.98 113.056 66.311 Z M 99.144 102.579 C 98.731 107.173 100.812 113.575 104.215 119.483 C 107.615 125.387 112.137 130.453 116.266 132.534 L 115.14 134.767 C 110.379 132.366 105.552 126.813 102.049 120.732 C 98.549 114.655 96.172 107.708 96.655 102.355 Z M 115.523 134.888 C 111.988 134.37 109.241 132.598 106.761 130.687 C 104.214 128.725 102.05 126.72 99.377 125.26 L 100.576 123.066 C 103.478 124.651 105.968 126.921 108.287 128.707 C 110.672 130.544 113 131.992 115.884 132.413 Z M 99.377 125.26 C 96.5 123.688 93.538 122.498 90.511 121.346 C 87.505 120.202 84.406 119.084 81.375 117.683 L 82.425 115.413 C 85.353 116.768 88.337 117.843 91.401 119.01 C 94.443 120.168 97.54 121.408 100.576 123.066 Z M 81.375 117.683 C 77.321 115.807 71.052 114.705 66.392 114.023 L 66.754 111.55 C 71.369 112.225 77.993 113.363 82.425 115.413 Z M 66.392 114.023 C 63.628 113.619 61.076 112.924 58.593 112.252 C 56.092 111.574 53.659 110.917 51.026 110.532 L 51.388 108.058 C 54.191 108.469 56.763 109.166 59.247 109.839 C 61.749 110.517 64.161 111.17 66.754 111.55 Z M 51.026 110.532 C 46.807 109.915 42.462 109.682 38.984 110.761 C 37.268 111.292 35.798 112.133 34.651 113.38 C 33.506 114.623 32.622 116.337 32.177 118.711 L 29.72 118.251 C 30.238 115.485 31.305 113.324 32.812 111.687 C 34.316 110.053 36.197 109.007 38.243 108.372 C 42.288 107.118 47.108 107.432 51.388 108.058 Z M 32.177 118.711 C 30.507 127.619 30.436 136.467 35.013 144.093 L 32.869 145.38 C 27.823 136.97 28.009 127.377 29.72 118.251 Z M 35.013 144.093 C 46.726 163.614 63.607 178.573 80.2 194.518 L 78.468 196.321 C 61.993 180.488 44.797 165.258 32.869 145.38 Z M 80.2 194.518 C 89.097 203.069 100.464 212.44 111.224 218.156 L 110.051 220.363 C 98.997 214.492 87.437 204.941 78.468 196.321 Z M 111.224 218.156 C 116.09 220.741 116.694 221.106 121.095 223.857 L 119.769 225.977 C 115.414 223.254 114.861 222.918 110.051 220.363 Z M 121.095 223.857 C 125.303 226.489 129.644 229.297 133.279 231.832 L 131.849 233.882 C 128.262 231.381 123.961 228.598 119.769 225.977 Z M 132.383 234.094 C 104.762 230.052 80.014 234.476 54.05 244.728 L 53.132 242.402 C 79.401 232.03 104.596 227.502 132.746 231.621 Z M 54.05 244.728 C 47.289 247.397 41.682 254.82 38.182 261.579 L 35.962 260.429 C 39.53 253.54 45.495 245.418 53.132 242.402 Z M 38.182 261.579 C 36.483 264.859 34.889 269.714 34.286 274.607 C 33.677 279.539 34.105 284.254 36.16 287.452 L 34.056 288.803 C 31.53 284.871 31.171 279.44 31.805 274.301 C 32.443 269.123 34.122 263.981 35.962 260.429 Z M 36.16 287.452 C 41.32 295.484 45.747 301.414 53.635 306.538 L 52.274 308.634 C 43.933 303.218 39.273 296.923 34.056 288.803 Z M 53.635 306.538 C 56.866 308.635 61.216 310.223 65.838 311.435 C 70.444 312.643 75.235 313.46 79.298 314.054 L 78.936 316.528 C 74.837 315.928 69.941 315.097 65.204 313.853 C 60.483 312.614 55.833 310.946 52.274 308.634 Z M 79.298 314.054 C 88.166 315.352 97.018 317.457 105.453 316.777 L 105.654 319.268 C 96.844 319.98 87.487 317.779 78.936 316.527 Z M 105.453 316.777 C 108.628 316.52 113.622 315.539 119.261 314.768 L 119.6 317.244 C 114.22 317.981 108.895 319.007 105.654 319.268 Z M 119.261 314.768 C 124.658 314.028 130.537 313.503 135.29 314.198 L 134.928 316.672 C 130.555 316.032 124.982 316.507 119.6 317.244 Z M 204.007 354.07 C 201.723 369.679 198.305 385.502 195.63 401.161 C 192.944 416.882 190.978 432.58 191.519 448.246 L 189.021 448.332 C 188.47 432.412 190.47 416.518 193.165 400.739 C 195.872 384.898 199.25 369.313 201.533 353.708 Z M 191.519 448.246 C 191.852 457.856 196.959 468.027 204.558 474.878 C 212.141 481.715 222.027 485.106 231.957 481.575 L 232.794 483.93 C 221.763 487.853 210.94 483.999 202.884 476.735 C 194.843 469.485 189.379 458.698 189.021 448.333 Z M 231.957 481.575 C 241.113 478.319 247.85 471.01 253.006 462.168 C 258.161 453.327 261.659 443.085 264.399 434.161 L 266.789 434.895 C 264.041 443.845 260.475 454.322 255.166 463.427 C 249.857 472.532 242.728 480.398 232.794 483.93 Z M 264.399 434.161 C 266.112 428.581 268.632 423.193 270.947 417.908 C 273.277 412.586 275.416 407.342 276.494 401.889 L 278.947 402.374 C 277.811 408.118 275.572 413.58 273.237 418.911 C 270.885 424.28 268.448 429.491 266.789 434.895 Z M 276.494 401.889 C 276.869 399.994 278.338 394.257 280.035 388.892 C 280.885 386.208 281.803 383.579 282.685 381.552 C 283.123 380.543 283.57 379.644 284.012 378.952 C 284.232 378.607 284.471 378.282 284.729 378.013 C 284.974 377.758 285.315 377.471 285.755 377.327 L 286.538 379.701 C 286.652 379.663 286.647 379.626 286.531 379.747 C 286.427 379.854 286.288 380.032 286.118 380.297 C 285.779 380.828 285.394 381.591 284.978 382.549 C 284.148 384.458 283.259 386.992 282.419 389.647 C 280.738 394.959 279.298 400.601 278.947 402.374 Z M 287.383 378.694 C 286.28 386.234 287.851 394.763 290.687 403.17 C 293.517 411.56 297.569 419.724 301.319 426.495 L 299.132 427.707 C 295.347 420.872 291.215 412.561 288.317 403.968 C 285.425 395.393 283.724 386.432 284.909 378.333 Z M 301.319 426.495 C 308.54 439.532 317.717 450.841 326.617 462.789 L 324.611 464.282 C 315.796 452.446 306.459 440.936 299.132 427.707 Z M 326.617 462.789 C 332.282 470.397 340.81 477.079 350.129 480.454 C 359.432 483.823 369.422 483.871 378.192 478.41 L 379.513 480.532 C 369.937 486.496 359.108 486.365 349.278 482.805 C 339.464 479.251 330.547 472.252 324.611 464.282 Z M 378.192 478.41 C 387.228 472.783 391.668 463.928 393.6 453.94 C 395.538 443.926 394.93 432.891 393.951 423.103 L 396.438 422.854 C 397.421 432.679 398.066 444.021 396.055 454.415 C 394.038 464.835 389.327 474.421 379.513 480.533 Z M 393.951 423.103 C 393.452 418.118 392.029 413.185 390.31 408.251 C 388.626 403.417 386.561 398.338 384.98 393.539 L 387.354 392.757 C 388.958 397.624 390.894 402.33 392.671 407.429 C 394.413 412.428 395.911 417.578 396.438 422.854 Z M 384.98 393.539 C 384.581 392.328 383.597 390.314 382.287 387.899 C 380.992 385.512 379.425 382.816 377.907 380.276 C 376.389 377.738 374.925 375.365 373.841 373.626 C 373.298 372.757 372.852 372.046 372.54 371.553 C 372.384 371.307 372.262 371.114 372.18 370.984 C 372.138 370.919 372.107 370.869 372.086 370.837 C 372.075 370.82 372.067 370.807 372.062 370.798 C 372.059 370.794 372.057 370.792 372.056 370.789 C 372.055 370.788 372.055 370.788 372.054 370.788 C 372.054 370.787 372.054 370.787 372.054 370.787 C 372.054 370.787 372.054 370.787 373.107 370.114 C 374.162 369.442 374.162 369.442 374.162 369.442 C 374.162 369.442 374.162 369.442 374.162 369.443 C 374.162 369.443 374.163 369.443 374.163 369.445 C 374.165 369.447 374.167 369.45 374.17 369.455 C 374.176 369.463 374.184 369.477 374.195 369.493 C 374.217 369.528 374.248 369.578 374.29 369.644 C 374.374 369.776 374.497 369.969 374.653 370.218 C 374.967 370.714 375.417 371.428 375.962 372.303 C 377.052 374.051 378.524 376.438 380.052 378.993 C 381.579 381.547 383.167 384.276 384.485 386.707 C 385.788 389.11 386.876 391.306 387.354 392.757 Z M 373.107 370.114 C 374.028 369.268 374.028 369.268 374.028 369.268 L 374.029 369.269 C 374.03 369.27 374.031 369.271 374.032 369.272 C 374.034 369.274 374.037 369.278 374.042 369.283 C 374.051 369.292 374.064 369.307 374.082 369.327 C 374.117 369.366 374.171 369.423 374.241 369.499 C 374.379 369.65 374.585 369.873 374.849 370.161 C 375.377 370.736 376.142 371.567 377.087 372.592 C 378.977 374.643 381.587 377.472 384.467 380.582 C 390.23 386.807 397.068 394.152 401.392 398.662 L 399.588 400.392 C 395.247 395.865 388.394 388.504 382.632 382.281 C 379.75 379.168 377.139 376.338 375.248 374.286 C 374.303 373.26 373.537 372.428 373.009 371.853 C 372.744 371.566 372.539 371.342 372.4 371.191 C 372.33 371.115 372.277 371.057 372.242 371.018 C 372.223 370.999 372.21 370.984 372.201 370.974 C 372.197 370.969 372.193 370.966 372.191 370.963 C 372.189 370.962 372.188 370.961 372.188 370.96 C 372.187 370.96 372.187 370.96 372.187 370.96 C 372.187 370.959 372.187 370.959 373.107 370.114 Z M 401.392 398.662 C 407.19 404.707 416.735 410.028 424.873 411.219 L 424.511 413.693 C 415.753 412.412 405.719 406.785 399.588 400.392 Z M 424.873 411.219 C 431.989 412.26 439.66 411.884 446.114 409.397 C 452.532 406.923 457.735 402.374 460.102 394.994 L 462.482 395.758 C 459.846 403.977 454.012 409.032 447.013 411.729 C 440.052 414.413 431.923 414.778 424.511 413.693 Z M 460.102 394.994 C 461.414 390.904 462.273 387.841 462.5 384.817 C 462.723 381.827 462.332 378.809 461.026 374.847 L 463.401 374.065 C 464.786 378.268 465.246 381.62 464.992 385.003 C 464.742 388.352 463.795 391.667 462.482 395.757 Z M 461.026 374.847 C 457.857 365.23 453.221 356.711 447.159 348.572 L 449.164 347.078 C 455.367 355.407 460.137 364.162 463.401 374.065 Z M 447.159 348.572 C 444.585 345.115 441.477 342.441 438.15 339.888 C 434.863 337.367 431.265 334.896 427.974 331.984 L 429.631 330.113 C 432.838 332.949 436.241 335.273 439.672 337.905 C 443.061 340.505 446.384 343.345 449.164 347.078 Z M 427.974 331.984 L 427.909 331.927 L 429.566 330.054 L 429.631 330.112 Z M 427.909 331.927 C 426.011 330.247 423.551 328.072 420.962 326.226 C 418.338 324.353 415.752 322.947 413.604 322.632 L 413.967 320.159 C 416.741 320.565 419.738 322.282 422.414 324.19 C 425.126 326.124 427.68 328.386 429.566 330.054 Z M 413.967 320.159 C 419.503 320.969 424.977 322.256 430.381 323.527 C 435.803 324.802 441.156 326.061 446.536 326.847 L 446.174 329.322 C 440.67 328.516 435.212 327.232 429.809 325.961 C 424.387 324.686 419.018 323.425 413.604 322.632 Z M 446.536 326.848 C 451.267 327.54 454.587 327.344 457.779 326.532 C 461.03 325.704 464.178 324.234 468.652 322.254 L 469.664 324.541 C 465.29 326.476 461.902 328.062 458.396 328.954 C 454.831 329.863 451.172 330.053 446.174 329.322 Z M 468.652 322.254 C 471.53 320.981 473.903 318.388 475.777 314.873 C 477.646 311.366 478.962 307.038 479.767 302.478 C 481.386 293.32 480.899 283.53 478.992 278.019 L 481.354 277.202 C 483.444 283.241 483.895 293.491 482.229 302.913 C 481.393 307.643 480.012 312.241 477.982 316.048 C 475.957 319.849 473.232 322.962 469.664 324.541 Z M 478.992 278.019 C 477.974 275.078 475.694 272.554 472.994 270.091 C 471.641 268.857 470.262 267.705 468.887 266.5 C 467.538 265.316 466.223 264.107 465.125 262.847 L 467.01 261.204 C 467.993 262.332 469.202 263.451 470.535 264.62 C 471.844 265.768 473.308 266.993 474.679 268.244 C 477.428 270.752 480.119 273.632 481.354 277.202 Z M 465.125 262.847 C 459.806 256.745 452.533 253.159 445.062 251.595 L 445.574 249.148 C 453.46 250.799 461.261 254.609 467.009 261.204 Z M 445.062 251.595 C 437.663 250.046 431.757 249.563 425.727 250.173 C 419.683 250.784 413.451 252.5 405.398 255.429 L 404.543 253.079 C 412.678 250.121 419.133 248.328 425.475 247.686 C 431.83 247.043 438.004 247.563 445.574 249.148 Z M 134.928 316.672 C 129.661 315.901 124.563 316.15 119.701 317.226 L 119.16 314.785 C 124.308 313.646 129.712 313.382 135.29 314.197 Z M 119.701 317.226 C 99.243 321.753 82.844 340.98 76.19 360.576 L 73.823 359.772 C 80.657 339.645 97.583 319.561 119.16 314.785 Z M 76.19 360.576 C 72.478 371.511 71.06 387.512 74.063 401.628 C 77.069 415.758 84.402 427.646 97.891 431.074 L 97.275 433.497 C 82.452 429.73 74.714 416.704 71.618 402.148 C 68.519 387.581 69.969 371.123 73.823 359.772 Z M 97.891 431.074 L 98.096 431.126 L 97.48 433.549 L 97.275 433.497 Z M 98.096 431.126 C 110.25 434.215 121.093 436.921 132.153 430.736 L 133.373 432.918 C 121.317 439.659 109.483 436.6 97.48 433.549 Z M 132.153 430.736 C 142.893 424.732 151.69 418.264 160.598 409.823 L 162.317 411.638 C 153.258 420.222 144.293 426.813 133.373 432.918 Z M 160.598 409.823 C 169.123 401.744 176.483 390.988 183.377 381.205 L 185.421 382.645 C 178.581 392.351 171.064 403.349 162.317 411.638 Z M 183.377 381.205 C 189.579 372.404 197.031 362.411 201.656 353.322 L 203.884 354.456 C 199.153 363.752 191.547 373.951 185.421 382.645 Z" fill="#fd1e1f"/><path d="M 250.23 284.926 C 247.933 282.757 241.745 279.575 238.138 274.484 C 227.45 259.398 235.697 235.157 246.323 227.852 C 250.766 224.797 254.399 222.209 259.264 219.893 C 263.449 217.9 268.003 218.458 272.529 218.458 C 284.713 218.458 298.858 226.433 307.34 234.914 C 315.091 242.665 321.86 252.758 321.86 263.953 C 321.86 269.495 321.806 273.776 319.278 278.832 C 317.698 281.993 314.938 285.125 312.144 287.221 C 308.921 289.638 306.412 293.059 303.003 295.251 C 298.099 298.403 293.138 297.833 287.551 297.833 C 278.824 297.833 270.442 295.263 262.527 291.702 C 258.443 289.864 253.513 288.027 250.23 284.926 Z" fill="#f6f5f1" stroke-width="2.5" stroke="#ffffff" stroke-linecap="round" stroke-miterlimit="10"/></svg>