<svg id="svg11349182076" xmlns="http://www.w3.org/2000/svg" xmlns:xlink="http://www.w3.org/1999/xlink" viewBox="0 0 600 600"><path d="M 400.058 383.304 C 411.216 395.306 426.363 404.332 439.373 408.021 C 460.681 414.062 480.735 415.016 502.219 408.254 C 519.192 402.912 539.446 391.473 553.295 380.486 C 567.735 369.03 592.344 349.953 593.919 329.979 C 596.651 295.324 565.612 256.106 528.295 256.881 C 506.365 257.336 486.804 262.57 465.419 265.902 C 481.831 260.134 498.25 250.902 513.176 242.284 C 547.133 222.679 572.571 190.193 551.533 150.928 C 540.958 131.19 530.684 115.712 508.703 107.21 C 485.793 98.348 462.438 113.519 442.048 120.743 C 431.342 124.536 422.083 134.271 412.551 140.354 C 405.85 144.63 399.507 151.145 395.471 157.958 C 393.946 160.533 392.454 163.032 391.02 165.536 C 394.319 159.44 397.079 152.784 399.353 146.635 C 406.275 127.924 412.455 108.968 414.747 89.186 C 416.365 75.211 411.869 64.001 404.867 51.872 C 395.983 36.485 386.98 31.916 370.653 26.887 C 354.155 21.805 328.395 30.472 312.786 35.442 C 301.85 38.924 286.449 46.81 282.143 58.2 C 271.729 85.744 266.427 119.065 281.627 145.393 C 269.767 124.851 257.501 99.666 239.784 83.516 C 224.473 69.56 203.891 64.442 183.728 62.92 C 155.059 60.757 117.837 79.034 98.248 98.984 C 78.822 118.769 85.814 151.958 98.065 173.176 C 107.967 190.326 118.306 200.558 135.057 211.088 C 146.034 217.987 166.223 221.727 176.456 228.483 C 150.959 220.193 124.888 218.144 98.323 221.972 C 82.105 224.309 63.239 225.541 48.572 233.489 C 24.224 246.682 14.48 283.141 19.702 308.661 C 24.124 330.27 45.532 376.22 74.585 370.275 C 97.005 365.687 115.592 361.704 135.041 350.475 C 122.338 357.809 111.191 372.91 103.897 385.281 C 98.172 394.991 84.833 404.515 83.746 416.608 C 82.112 434.789 84.382 449.807 90.933 467.139 C 94.678 477.046 104.274 496.972 114.256 502.236 C 126.147 508.506 144.664 507.706 157.271 504.55 C 175.338 500.027 192.393 492.876 208.46 483.6 C 217.117 478.601 224.792 471.83 229.541 462.825 C 232.974 456.314 243.636 446.757 243.197 439.453 C 245.996 444.301 243.665 454.418 243.226 459.703 C 242.038 474.016 242.507 490.7 246.476 504.573 C 253.553 529.314 266.258 552.351 285.049 570.059 C 300.378 584.505 329.701 585.96 349.551 584.918 C 370.4 583.824 393.494 577.937 410.128 564.666 C 425.711 552.233 440.82 536.522 446.122 516.736 C 451.833 495.421 456.403 469.595 446.301 448.664 C 438.451 432.399 429.241 417.987 419.922 402.808 C 415.075 394.914 407.187 391.64 400.058 383.304 Z" fill="rgb(132,222,249)" stroke-width="4" stroke="rgb(132,222,249)" stroke-linecap="round" stroke-linejoin="round" stroke-dasharray=""></path><path d="M 232.71 277.054 C 235.869 269.67 241.651 267.716 249.025 264.533 C 251.606 263.419 254.537 262.334 255.854 262.257 C 258.52 262.1 261.424 259.53 264.202 259.221 C 267.907 258.809 271.079 257.703 274.994 257.703 C 280.068 257.703 284.937 257.918 289.96 258.42 C 304.651 259.889 319.547 261.001 333.299 267.189 C 338.594 269.572 342.363 272.596 342.363 279.035 C 342.363 289.377 340.319 299.501 337.051 309.305 C 331.406 326.24 313.586 331.834 296.832 332.07 C 279.076 332.32 259.142 332.358 244.851 320.266 C 240.212 316.34 235.508 309.703 233.468 303.993 C 231.595 298.748 231.039 294.316 231.192 288.015 C 231.297 283.695 231.01 281.027 232.71 277.054 Z" fill="rgb(0,21,212)" stroke-width="4" stroke="rgb(0,21,212)" stroke-linecap="round" stroke-miterlimit="10" stroke-dasharray=""></path></svg>